# xmcd
#
# Track frame offsets: 
#        150
#        20760
#        38759
#        58938
#        80355
#        97109
#        118718
#        148412
#        169918
#        191350
#        215169
#        241715
#        273280
#
# Disc length: 3657 seconds
#
# Revision: 2
# Processed by: cddbd v1.5.2PL0 Copyright (c) Steve Scherf et al.
# Submitted via: ExactAudioCopy v0.99pb4
#
DISCID=c00e470d
DTITLE=The Temptations - Legacy
DYEAR=2004
DGENRE=R&B
TTITLE0=Still Tempting
TTITLE1='Round Here
TTITLE2=Stay Together
TTITLE3=Somethin' Special
TTITLE4=Fifty Fifty Love
TTITLE5=Love to the Music
TTITLE6=You are Necessary in My Life (The Wedding Song)
TTITLE7=Mr. Fix It
TTITLE8=All the Wrong People
TTITLE9=Baby It's Me
TTITLE10=Why Can't We Be Lovin' Friends
TTITLE11=Never Let You Down
TTITLE12=DATA
EXTD=
EXTT0=
EXTT1=
EXTT2=
EXTT3=
EXTT4=
EXTT5=
EXTT6=
EXTT7=
EXTT8=
EXTT9=
EXTT10=
EXTT11=
EXTT12=
PLAYORDER=
